<?xml version="1.0" encoding="UTF-8"?><svg id="Capa_1" xmlns="http://www.w3.org/2000/svg" viewBox="0 0 80 80"><defs><style>.cls-1{fill:#ef8045;}</style></defs><path class="cls-1" d="m31.65,44.32h1.59l.38-1.13h2.34l.38,1.13h1.66l-2.27-6.35h-1.82l-2.27,6.35Zm3.18-4.69l.76,2.34h-1.59l.83-2.34Z"/><rect class="cls-1" x="38.76" y="37.89" width="1.59" height="6.35"/><path class="cls-1" d="m57.66,37.89c-1.51,0-2.8,1.06-3.1,2.5h-9.76v1.29h9.76c.3,1.44,1.59,2.57,3.1,2.57,1.74,0,3.18-1.44,3.18-3.18s-1.44-3.18-3.18-3.18Zm0,4.99c-1.06,0-1.89-.83-1.89-1.89s.83-1.89,1.89-1.89,1.89.83,1.89,1.89-.83,1.89-1.89,1.89Z"/><path class="cls-1" d="m53.81,50.29c-1.51,0-2.8,1.06-3.1,2.5h-5.22v-2.95h4.46v-6.66h-2.57v4.08h-21.48c-.23,0-.45.15-.45.45,0,.15.08.23.15.3l1.89,1.82h6.66v7.64h9.15c.23,0,.45-.15.45-.45,0-.08-.08-.23-.15-.3l-1.89-1.82h-4.99v-5.14h7.56v3.63l.61.61h5.9c.3,1.44,1.59,2.5,3.1,2.5,1.74,0,3.18-1.44,3.18-3.18-.08-1.59-1.51-3.03-3.25-3.03Zm0,5.07c-1.06,0-1.89-.83-1.89-1.89s.83-1.89,1.89-1.89,1.89.83,1.89,1.89c0,.98-.83,1.89-1.89,1.89Z"/><rect class="cls-1" x="49.95" y="35.24" width="3.86" height="1.29"/><rect class="cls-1" x="49.95" y="45.53" width="3.86" height="1.29"/><path class="cls-1" d="m25.52,44.09v-9.61h21.93v3.63h2.57v-6.13h-4.46v-3.48h5.29c.3,1.44,1.59,2.5,3.1,2.5,1.74,0,3.18-1.44,3.18-3.18s-1.44-3.18-3.18-3.18c-1.51,0-2.8,1.06-3.1,2.5h-5.9l-.61.61v4.08h-21.4v3.86h-3.86v8.92h6.43v-.53Zm28.29-18.15c1.06,0,1.89.83,1.89,1.89s-.83,1.89-1.89,1.89-1.89-.83-1.89-1.89.91-1.89,1.89-1.89Zm-32.14,12.4h1.29v3.78h-1.29v-3.78Z"/></svg>