<svg width="48" height="32" viewBox="0 0 48 32" fill="none" xmlns="http://www.w3.org/2000/svg">
<path d="M30 16.0001C30 19.3081 27.308 22.0001 24 22.0001C20.692 22.0001 18 19.3081 18 16.0001C18 12.6921 20.692 10.0001 24 10.0001C27.308 10.0001 30 12.6921 30 16.0001ZM48 15.1021C48 15.1021 39.496 32.0001 24.03 32.0001C9.67 32.0001 0 15.1021 0 15.1021C0 15.1021 8.892 0.00012207 24.03 0.00012207C39.418 0.00012207 48 15.1021 48 15.1021ZM34 16.0001C34 10.4861 29.514 6.00012 24 6.00012C18.486 6.00012 14 10.4861 14 16.0001C14 21.5141 18.486 26.0001 24 26.0001C29.514 26.0001 34 21.5141 34 16.0001Z" fill="#17726D"/>
</svg>
