<?xml version="1.0" encoding="UTF-8"?><svg id="Capa_1" xmlns="http://www.w3.org/2000/svg" viewBox="0 0 80 80"><defs><style>.cls-1{fill:#647a7d;}</style></defs><path class="cls-1" d="m40.7,57.76h1.09c.62,0,1.16-.07,1.09.88-.07,1.16-.13,1.3-1.15,1.3h-2.32c-.61,0-.95-.27-.89-.89v-.81c0-.41.14-.55.55-.48h1.63Z"/><path class="cls-1" d="m54.5,59.84l-1.99-2.03h-21.96V20.99c0-.32-.39-.47-.62-.25l-2.03,1.99v35.09h-4.05v2.65h30.4c.32,0,.47-.39.25-.62Z"/><path class="cls-1" d="m46.5,54.79c0,.32.39.47.62.25l2.03-1.99V20.62h-1.81s-14.14-.01-14.14-.01v2.66h13.29v31.52Z"/><path class="cls-1" d="m43.84,47.5v-17.02h-10.67v17.38h10.67v-.36Zm-1.4-1.03h-7.88v-2.47l1.7-1.7c1.38.84,3.08.84,4.45,0l1.23,1.23h0s.5.5.5.5v2.45Zm0-4.2l-1.2-1.2c-.21-.2-.52-.24-.76-.09l-.38.24c-1,.62-2.23.62-3.23,0l-.38-.24c-.25-.15-.56-.11-.76.09l-1.17,1.17v-10.37h7.88v10.4Z"/><path class="cls-1" d="m37.19,26.56c0,.75.61,1.36,1.36,1.36s1.36-.61,1.36-1.36-.61-1.36-1.36-1.36-1.36.61-1.36,1.36Z"/><path class="cls-1" d="m35.57,37.95c.15,1.49,1.4,2.64,2.92,2.64s2.77-1.14,2.92-2.64h.02v-1.35h-.02c-.15-1.49-1.4-2.64-2.92-2.64s-2.77,1.14-2.92,2.64h-.02v1.35h.02Zm1.22-1.05c0-.94.76-1.7,1.7-1.7s1.7.76,1.7,1.7v.76c0,.94-.76,1.7-1.7,1.7s-1.7-.76-1.7-1.7v-.76Z"/></svg>