<?xml version="1.0" encoding="UTF-8"?><svg id="Capa_1" xmlns="http://www.w3.org/2000/svg" viewBox="0 0 80 80"><defs><style>.cls-1{fill:#ffd201;}</style></defs><path class="cls-1" d="m32.55,35.6c-3.38,0-6.64,0-9.89,0-.65,0-2.51-1.36-2.66-1.96-.07-.28.04-.48.33-.51.24-.03.48-.02.72-.02,4.22,0,8.44-.01,12.65.01.65,0,.89-.13.86-.83-.06-1.52,0-3.05-.03-4.58-.01-.54.15-.72.71-.73,1.77-.02,1.77-.05,1.77,1.71,0,1.11.02,2.21,0,3.32,0,.45.08.65.59.53,1.21-.28,2.44-.28,3.64,0,.5.12.62-.03.62-.51-.02-1.44.02-2.87-.02-4.31-.02-.59.18-.76.76-.76,1.71,0,1.71-.02,1.71,1.69,0,1.2.04,2.39-.01,3.59-.03.67.17.86.85.85,4.25-.03,8.5-.02,12.74,0,.34,0,.8-.17.98.23.19.41-.29.59-.49.87-.81,1.15-1.88,1.48-3.29,1.42-2.9-.12-5.8-.03-8.78-.03.4.76.77,1.46,1.14,2.15.19.34.54.19.81.2,3.23.01,6.46.03,9.69,0,.7,0,.92.19.91.9-.04,2.27-.03,4.55,0,6.82,0,.61-.09.91-.82.89-1.65-.04-1.65,0-1.65-1.65,0-1.23-.02-2.45,0-3.68.01-.55-.09-.8-.72-.79-2.3.04-4.61.03-6.91,0-.58,0-.69.21-.69.73,0,1.55.12,3.11-.28,4.64-.27,1.03-.76,1.98-1.27,3.06.43,0,.75,0,1.07,0,3.5,0,7,0,10.5,0,.28,0,.65-.13.79.23.13.35-.25.49-.42.73-.87,1.22-2.02,1.6-3.53,1.54-3.26-.12-6.52-.03-9.78-.04-.55,0-1.02.12-1.51.43-2.82,1.81-5.68,1.81-8.5,0-.45-.29-.89-.43-1.42-.42-3.74.01-7.48,0-11.22,0-.54,0-2.44-1.53-2.53-2.03-.05-.25.04-.41.32-.42.24,0,.48-.01.72-.01,3.5,0,7,0,10.5,0,.58,0,.86-.03.46-.7-1.24-2.07-1.36-4.36-1.21-6.68.06-.89-.23-1.09-1.08-1.06-2.15.06-4.31.04-6.46,0-.58,0-.77.15-.75.74.04,1.55-.01,3.11.03,4.67.01.57-.18.7-.72.7-1.81.01-1.81.03-1.81-1.75,0-2.03.02-4.07-.01-6.1-.01-.6.18-.75.76-.75,3.23.02,6.46,0,9.69.03.62,0,.98-.14,1.21-.75.2-.52.55-.98.92-1.61Zm.91,6.68c-.22,2.51.52,4.71,2.33,6.5.94.92,2.05,1.54,3.41,1.56,2.32.04,4.41-1.49,5.53-4.01.87-1.94.71-3.98.56-6-.21-2.63-2.2-4.64-4.94-5.18-2.36-.47-4.97.83-6.18,3.03-.71,1.28-.81,2.66-.71,4.1Z"/><path class="cls-1" d="m27.6,57.97c-.27-.92.26-1.68,1.05-2.38.78-.69,1.49-1.47,2.23-2.21.78-.76,1.3-.84,2.22-.24,1.6,1.03,3.26,1.85,5.19,2.05,2.55.26,4.84-.38,6.97-1.76,1.5-.97,1.73-.94,3,.27.82.78,1.59,1.63,2.43,2.39.54.49.78,1.02.68,1.73-.1.72.4,1.8-.25,2.08-.75.33-1.17-.79-1.72-1.27-.86-.75-1.64-1.57-2.43-2.39-.3-.31-.51-.35-.91-.13-4.42,2.5-8.86,2.51-13.29.02-.37-.21-.57-.23-.89.11-1.07,1.13-2.18,2.22-3.29,3.31-.2.2-.36.55-.73.39-.34-.15-.26-.5-.27-.79,0-.33,0-.66,0-1.18Z"/><path class="cls-1" d="m49.09,24.75c-2.12,0-4.24,0-6.36,0-.34,0-.79.12-.96-.28-.17-.39.3-.52.47-.78.81-1.22,1.96-1.46,3.38-1.43,4.12.1,8.25.05,12.37.02.72,0,.9.22.89.91-.04,2.24-.04,4.48,0,6.72.01.7-.19.92-.9.9-1.58-.04-1.58,0-1.58-1.63,0-1.22-.03-2.45.01-3.67.02-.6-.2-.77-.78-.76-2.18.02-4.36,0-6.54,0Z"/><path class="cls-1" d="m27.68,22.29c2.27,0,4.54,0,6.81,0,.63,0,2.42,1.32,2.59,1.92.12.44-.19.52-.5.54-.57.02-1.14,0-1.7,0-3.8,0-7.59.03-11.39-.02-.84-.01-1.05.25-1.01,1.05.06,1.43,0,2.87.03,4.3.01.55-.14.71-.7.71-1.83.02-1.83.04-1.83-1.82,0-1.97.03-3.95-.02-5.92-.01-.64.19-.8.81-.79,2.3.03,4.6.01,6.9.01Z"/></svg>