<?xml version="1.0" encoding="UTF-8"?><svg id="Capa_1" xmlns="http://www.w3.org/2000/svg" viewBox="0 0 80 80"><defs><style>.cls-1{fill:#7bc6ca;}</style></defs><path class="cls-1" d="M56.14,47.81c-.34-.34-.9-.34-1.24,0h0c-1.78,1.56-4.07,2.41-6.44,2.38-2.36,.01-4.65-.84-6.44-2.38-.34-.34-.9-.34-1.24,0h0s-3.78,3.78-3.78,3.78v1.8c0,.08,.03,.15,.09,.2,.11,.11,.29,.11,.4,0,0,0,0,0,0,0l3.96-3.96c1.78,1.33,3.9,2.13,6.12,2.3v1.78h1.77v-1.79c2.21-.16,4.33-.96,6.1-2.29l3.96,3.96c.11,.11,.3,.11,.41,0,0,0,0,0,0,0,.05-.05,.08-.12,.09-.2v-1.8l-3.75-3.78Z"/><path class="cls-1" d="M41.43,40.51c.12,3.9,3.38,6.96,7.28,6.83,3.72-.12,6.71-3.11,6.83-6.83v-4.37l2.11-2.7s-6.61-4.38-9.18-4.38-9.23,4.38-9.23,4.38l2.15,2.69,.04,4.38Zm12.35-4.4v.61c-1.51,1.2-3.38,1.86-5.31,1.86-1.92,0-3.78-.65-5.29-1.82v-.64h10.6Zm-5.29,9.68c-2.82,.1-5.2-2.1-5.3-4.92,0-.12,0-.24,0-.36v-1.61c1.6,.94,3.42,1.43,5.27,1.43,1.87,0,3.71-.51,5.31-1.49v1.65c.07,2.85-2.18,5.22-5.03,5.29-.08,0-.17,0-.25,0Zm0-14.97c1.35,0,4.48,1.7,6.62,3.03l-1.07,1.38h-11.09l-1.11-1.38c2.15-1.34,5.29-3.03,6.65-3.03h.01Z"/><path class="cls-1" d="M46.99,34.15c0,.11,.09,.19,.19,.19h1.27l1.43-1.39s.05-.08,.05-.13c0-.1-.08-.19-.18-.19,0,0,0,0,0,0h-1.3l-1.39,1.39s-.06,.08-.06,.14Z"/><path class="cls-1" d="M55.77,51.15h0l-.09-.09h-.96c-.07,0-.12,.05-.12,.12,0,.03,.01,.06,.04,.09l2.46,2.42h.95c.07,0,.13-.04,.13-.11,0-.04-.02-.09-.05-.11l-2.35-2.32Z"/><path class="cls-1" d="M42.21,51.1h-.95l-2.45,2.43s-.05,.12,0,.17c.02,.02,.05,.04,.09,.04h.95l2.45-2.42c.06-.04,.07-.11,.03-.17-.03-.04-.07-.06-.12-.05Z"/><path class="cls-1" d="M39.26,44.77c-.34-.34-.9-.34-1.24,0h0c-1.78,1.56-4.07,2.4-6.44,2.38-2.36,.01-4.65-.84-6.44-2.38-.34-.34-.9-.34-1.24,0,0,0,0,0,0,0l-3.78,3.77v1.8c0,.07,.03,.15,.08,.2,.11,.11,.3,.11,.41,0,0,0,0,0,0,0l3.96-3.96c1.78,1.33,3.9,2.13,6.12,2.29v1.78h1.76v-1.78c2.21-.17,4.33-.96,6.11-2.29l3.96,3.63c.11,.11,.55,.19,.41,.33s.08-.13,.08-.2v-1.8l-3.74-3.77Z"/><path class="cls-1" d="M24.54,37.46c-.08,3.81,2.94,6.97,6.76,7.05,.1,0,.21,0,.31,0,3.8,.09,6.96-2.92,7.05-6.73,0-.11,0-.21,0-.32v-4.37l2.15-2.7s-6.62-4.38-9.18-4.38-9.26,4.38-9.26,4.38l2.15,2.7,.04,4.38Zm12.35-4.4v.61c-1.51,1.21-3.38,1.87-5.31,1.87-1.92,0-3.78-.64-5.29-1.82v-.65h10.6Zm-5.29,9.67c-2.82,.1-5.2-2.1-5.3-4.92,0-.12,0-.24,0-.36v-1.6c3.27,1.94,7.33,1.93,10.59-.04v1.65c.06,2.86-2.21,5.22-5.07,5.27-.07,0-.14,0-.22,0Zm0-14.98c1.35,0,4.49,1.7,6.62,3.04l-1.08,1.37h-11.1l-1.1-1.38c2.14-1.33,5.27-3.02,6.64-3.02h.02Z"/><path class="cls-1" d="M30.11,31.08c0,.11,.09,.19,.19,.19h1.27l1.43-1.39c.07-.08,.06-.2-.01-.27-.03-.03-.08-.05-.12-.05h-1.3l-1.39,1.43s-.05,.06-.06,.09Z"/><path class="cls-1" d="M25.33,48.06h-.95l-2.45,2.43s-.05,.12,0,.17c.02,.02,.05,.04,.09,.04h.95l2.45-2.43c.05-.04,.07-.11,.03-.16-.03-.04-.07-.06-.12-.05Z"/><path class="cls-1" d="M54.49,52.8h-1.77l-.72,.68c-.06,.06-.06,.15,0,.21,.02,.03,.06,.04,.09,.04h1.78l.72-.72c.06-.05,.06-.14,0-.19,0,0,0,0,0,0-.03-.02-.07-.02-.1-.01Z"/></svg>